<mxfile host="app.diagrams.net" modified="2023-11-24T16:18:45.256Z" agent="Mozilla/5.0 (Windows NT 10.0; Win64; x64) AppleWebKit/537.36 (KHTML, like Gecko) Chrome/117.0.0.0 Safari/537.36 Edg/117.0.2045.36" etag="mGB6-WqA6V4YFucEwMhy" version="22.1.3" type="github">
  <diagram name="Page-1" id="e7e014a7-5840-1c2e-5031-d8a46d1fe8dd">
    <mxGraphModel dx="2132" dy="1126" grid="1" gridSize="10" guides="1" tooltips="1" connect="1" arrows="1" fold="1" page="1" pageScale="1" pageWidth="1169" pageHeight="827" background="none" math="0" shadow="0">
      <root>
        <mxCell id="0" />
        <mxCell id="1" parent="0" />
        <mxCell id="dVPfpixic-bEuHpZjrr3-71" style="edgeStyle=orthogonalEdgeStyle;rounded=0;orthogonalLoop=1;jettySize=auto;html=1;entryX=0.5;entryY=0;entryDx=0;entryDy=0;" parent="1" source="dVPfpixic-bEuHpZjrr3-72" target="dVPfpixic-bEuHpZjrr3-75" edge="1">
          <mxGeometry relative="1" as="geometry" />
        </mxCell>
        <mxCell id="dVPfpixic-bEuHpZjrr3-72" value="Receber dados&#xa; Login" style="rounded=1;" parent="1" vertex="1">
          <mxGeometry x="154.5" y="658" width="110" height="50" as="geometry" />
        </mxCell>
        <mxCell id="dVPfpixic-bEuHpZjrr3-73" style="edgeStyle=orthogonalEdgeStyle;rounded=0;orthogonalLoop=1;jettySize=auto;html=1;exitX=0;exitY=0.5;exitDx=0;exitDy=0;fillColor=#f8cecc;strokeColor=#000000;" parent="1" source="dVPfpixic-bEuHpZjrr3-75" edge="1">
          <mxGeometry relative="1" as="geometry">
            <mxPoint x="150" y="680" as="targetPoint" />
            <Array as="points">
              <mxPoint x="130.5" y="786" />
              <mxPoint x="130.5" y="680" />
            </Array>
          </mxGeometry>
        </mxCell>
        <mxCell id="dVPfpixic-bEuHpZjrr3-74" style="edgeStyle=orthogonalEdgeStyle;rounded=0;orthogonalLoop=1;jettySize=auto;html=1;strokeColor=#330033;" parent="1" source="dVPfpixic-bEuHpZjrr3-75" edge="1">
          <mxGeometry relative="1" as="geometry">
            <mxPoint x="209.5" y="860" as="targetPoint" />
          </mxGeometry>
        </mxCell>
        <mxCell id="dVPfpixic-bEuHpZjrr3-75" value="" style="rhombus;whiteSpace=wrap;html=1;" parent="1" vertex="1">
          <mxGeometry x="197" y="773" width="25" height="25" as="geometry" />
        </mxCell>
        <mxCell id="dVPfpixic-bEuHpZjrr3-76" style="edgeStyle=orthogonalEdgeStyle;rounded=0;orthogonalLoop=1;jettySize=auto;html=1;entryX=0.508;entryY=-0.06;entryDx=0;entryDy=0;entryPerimeter=0;" parent="1" target="dVPfpixic-bEuHpZjrr3-72" edge="1">
          <mxGeometry relative="1" as="geometry">
            <mxPoint x="210" y="620" as="sourcePoint" />
          </mxGeometry>
        </mxCell>
        <mxCell id="dVPfpixic-bEuHpZjrr3-77" value="Fez Login&amp;nbsp;" style="text;html=1;strokeColor=none;fillColor=none;align=center;verticalAlign=middle;whiteSpace=wrap;rounded=0;fontSize=7;" parent="1" vertex="1">
          <mxGeometry x="200" y="798" width="74.5" height="30" as="geometry" />
        </mxCell>
        <mxCell id="dVPfpixic-bEuHpZjrr3-91" style="edgeStyle=orthogonalEdgeStyle;rounded=0;orthogonalLoop=1;jettySize=auto;html=1;entryX=0.5;entryY=0;entryDx=0;entryDy=0;" parent="1" source="dVPfpixic-bEuHpZjrr3-83" target="dVPfpixic-bEuHpZjrr3-90" edge="1">
          <mxGeometry relative="1" as="geometry" />
        </mxCell>
        <mxCell id="dVPfpixic-bEuHpZjrr3-83" value="" style="shape=waypoint;sketch=0;size=6;pointerEvents=1;points=[];fillColor=none;resizable=0;rotatable=0;perimeter=centerPerimeter;snapToPoint=1;strokeWidth=13;" parent="1" vertex="1">
          <mxGeometry x="199.5" y="480" width="20" height="20" as="geometry" />
        </mxCell>
        <mxCell id="dVPfpixic-bEuHpZjrr3-84" value="Não fez Login&amp;nbsp;" style="text;html=1;strokeColor=none;fillColor=none;align=center;verticalAlign=middle;whiteSpace=wrap;rounded=0;fontSize=7;" parent="1" vertex="1">
          <mxGeometry x="130" y="760" width="74.5" height="30" as="geometry" />
        </mxCell>
        <mxCell id="dVPfpixic-bEuHpZjrr3-86" value="B" style="ellipse;whiteSpace=wrap;html=1;" parent="1" vertex="1">
          <mxGeometry x="310" y="960" width="30" height="30" as="geometry" />
        </mxCell>
        <mxCell id="dVPfpixic-bEuHpZjrr3-89" style="edgeStyle=orthogonalEdgeStyle;rounded=0;orthogonalLoop=1;jettySize=auto;html=1;entryX=0.5;entryY=0;entryDx=0;entryDy=0;" parent="1" source="dVPfpixic-bEuHpZjrr3-87" target="dVPfpixic-bEuHpZjrr3-88" edge="1">
          <mxGeometry relative="1" as="geometry" />
        </mxCell>
        <mxCell id="dVPfpixic-bEuHpZjrr3-87" value="A" style="ellipse;whiteSpace=wrap;html=1;" parent="1" vertex="1">
          <mxGeometry x="450" y="480" width="30" height="30" as="geometry" />
        </mxCell>
        <mxCell id="dVPfpixic-bEuHpZjrr3-88" value="Acessar Banco de &#xa;Dados" style="rounded=1;" parent="1" vertex="1">
          <mxGeometry x="410" y="555" width="110" height="50" as="geometry" />
        </mxCell>
        <mxCell id="dVPfpixic-bEuHpZjrr3-90" value="Administar Produtos" style="rounded=1;" parent="1" vertex="1">
          <mxGeometry x="142" y="540" width="135" height="80" as="geometry" />
        </mxCell>
        <mxCell id="dVPfpixic-bEuHpZjrr3-100" style="edgeStyle=orthogonalEdgeStyle;rounded=0;orthogonalLoop=1;jettySize=auto;html=1;" parent="1" source="dVPfpixic-bEuHpZjrr3-92" edge="1">
          <mxGeometry relative="1" as="geometry">
            <mxPoint x="520" y="683" as="targetPoint" />
          </mxGeometry>
        </mxCell>
        <mxCell id="lAb_s6RTUfXxC0ucx-UY-13" style="edgeStyle=orthogonalEdgeStyle;rounded=0;orthogonalLoop=1;jettySize=auto;html=1;" parent="1" source="dVPfpixic-bEuHpZjrr3-92" edge="1">
          <mxGeometry relative="1" as="geometry">
            <mxPoint x="465" y="820" as="targetPoint" />
          </mxGeometry>
        </mxCell>
        <mxCell id="dVPfpixic-bEuHpZjrr3-92" value="" style="rhombus;whiteSpace=wrap;html=1;" parent="1" vertex="1">
          <mxGeometry x="452.5" y="670.5" width="25" height="25" as="geometry" />
        </mxCell>
        <mxCell id="dVPfpixic-bEuHpZjrr3-96" style="edgeStyle=orthogonalEdgeStyle;rounded=0;orthogonalLoop=1;jettySize=auto;html=1;entryX=0.523;entryY=-0.154;entryDx=0;entryDy=0;entryPerimeter=0;" parent="1" source="dVPfpixic-bEuHpZjrr3-88" target="dVPfpixic-bEuHpZjrr3-92" edge="1">
          <mxGeometry relative="1" as="geometry" />
        </mxCell>
        <mxCell id="dVPfpixic-bEuHpZjrr3-102" style="edgeStyle=orthogonalEdgeStyle;rounded=0;orthogonalLoop=1;jettySize=auto;html=1;" parent="1" source="dVPfpixic-bEuHpZjrr3-101" edge="1">
          <mxGeometry relative="1" as="geometry">
            <mxPoint x="680" y="683" as="targetPoint" />
          </mxGeometry>
        </mxCell>
        <mxCell id="dVPfpixic-bEuHpZjrr3-101" value="Receber dados &#xa;do produto" style="rounded=1;" parent="1" vertex="1">
          <mxGeometry x="530" y="658" width="110" height="50" as="geometry" />
        </mxCell>
        <mxCell id="dVPfpixic-bEuHpZjrr3-104" style="edgeStyle=orthogonalEdgeStyle;rounded=0;orthogonalLoop=1;jettySize=auto;html=1;" parent="1" source="dVPfpixic-bEuHpZjrr3-103" edge="1">
          <mxGeometry relative="1" as="geometry">
            <mxPoint x="760" y="683" as="targetPoint" />
          </mxGeometry>
        </mxCell>
        <mxCell id="dVPfpixic-bEuHpZjrr3-107" style="edgeStyle=orthogonalEdgeStyle;rounded=0;orthogonalLoop=1;jettySize=auto;html=1;" parent="1" source="dVPfpixic-bEuHpZjrr3-103" edge="1">
          <mxGeometry relative="1" as="geometry">
            <mxPoint x="702.5" y="740" as="targetPoint" />
          </mxGeometry>
        </mxCell>
        <mxCell id="dVPfpixic-bEuHpZjrr3-103" value="" style="rhombus;whiteSpace=wrap;html=1;" parent="1" vertex="1">
          <mxGeometry x="690" y="670.5" width="25" height="25" as="geometry" />
        </mxCell>
        <mxCell id="dVPfpixic-bEuHpZjrr3-106" style="edgeStyle=orthogonalEdgeStyle;rounded=0;orthogonalLoop=1;jettySize=auto;html=1;" parent="1" source="dVPfpixic-bEuHpZjrr3-105" edge="1">
          <mxGeometry relative="1" as="geometry">
            <mxPoint x="920" y="683" as="targetPoint" />
          </mxGeometry>
        </mxCell>
        <mxCell id="dVPfpixic-bEuHpZjrr3-105" value="Corrigir&#xa; informações" style="rounded=1;" parent="1" vertex="1">
          <mxGeometry x="770" y="658" width="110" height="50" as="geometry" />
        </mxCell>
        <mxCell id="dVPfpixic-bEuHpZjrr3-108" value="D" style="ellipse;whiteSpace=wrap;html=1;" parent="1" vertex="1">
          <mxGeometry x="687.5" y="743" width="30" height="30" as="geometry" />
        </mxCell>
        <mxCell id="dVPfpixic-bEuHpZjrr3-109" value="" style="ellipse;html=1;shape=endState;fillColor=#000000;strokeColor=#000000;" parent="1" vertex="1">
          <mxGeometry x="930" y="668" width="30" height="30" as="geometry" />
        </mxCell>
        <mxCell id="dVPfpixic-bEuHpZjrr3-112" value="Dados não encontrados&amp;nbsp;" style="text;html=1;strokeColor=none;fillColor=none;align=center;verticalAlign=middle;whiteSpace=wrap;rounded=0;fontSize=7;" parent="1" vertex="1">
          <mxGeometry x="715" y="708" width="95" height="30" as="geometry" />
        </mxCell>
        <mxCell id="dVPfpixic-bEuHpZjrr3-113" value="&amp;nbsp;Dados encontrados&amp;nbsp;" style="text;html=1;strokeColor=none;fillColor=none;align=center;verticalAlign=middle;whiteSpace=wrap;rounded=0;fontSize=7;" parent="1" vertex="1">
          <mxGeometry x="705" y="650" width="65" height="30" as="geometry" />
        </mxCell>
        <mxCell id="dVPfpixic-bEuHpZjrr3-121" style="edgeStyle=orthogonalEdgeStyle;rounded=0;orthogonalLoop=1;jettySize=auto;html=1;entryX=0;entryY=0.5;entryDx=0;entryDy=0;" parent="1" source="dVPfpixic-bEuHpZjrr3-114" target="dVPfpixic-bEuHpZjrr3-117" edge="1">
          <mxGeometry relative="1" as="geometry" />
        </mxCell>
        <mxCell id="dVPfpixic-bEuHpZjrr3-127" value="" style="edgeStyle=orthogonalEdgeStyle;rounded=0;orthogonalLoop=1;jettySize=auto;html=1;" parent="1" source="dVPfpixic-bEuHpZjrr3-114" target="dVPfpixic-bEuHpZjrr3-126" edge="1">
          <mxGeometry relative="1" as="geometry" />
        </mxCell>
        <mxCell id="dVPfpixic-bEuHpZjrr3-114" value="" style="rhombus;whiteSpace=wrap;html=1;" parent="1" vertex="1">
          <mxGeometry x="197" y="867.5" width="25" height="25" as="geometry" />
        </mxCell>
        <mxCell id="dVPfpixic-bEuHpZjrr3-117" value="A" style="ellipse;whiteSpace=wrap;html=1;" parent="1" vertex="1">
          <mxGeometry x="310" y="865" width="30" height="30" as="geometry" />
        </mxCell>
        <mxCell id="dVPfpixic-bEuHpZjrr3-118" value="C" style="ellipse;whiteSpace=wrap;html=1;" parent="1" vertex="1">
          <mxGeometry x="194.5" y="1040" width="30" height="30" as="geometry" />
        </mxCell>
        <mxCell id="dVPfpixic-bEuHpZjrr3-123" value="Selecionar gerenciar Produtos" style="text;html=1;strokeColor=none;fillColor=none;align=center;verticalAlign=middle;whiteSpace=wrap;rounded=0;fontSize=7;" parent="1" vertex="1">
          <mxGeometry x="224.5" y="850" width="74.5" height="30" as="geometry" />
        </mxCell>
        <mxCell id="dVPfpixic-bEuHpZjrr3-124" value="Selecionar gerenciar Clientes" style="text;html=1;strokeColor=none;fillColor=none;align=center;verticalAlign=middle;whiteSpace=wrap;rounded=0;fontSize=7;" parent="1" vertex="1">
          <mxGeometry x="210" y="920" width="74.5" height="30" as="geometry" />
        </mxCell>
        <mxCell id="dVPfpixic-bEuHpZjrr3-125" value="Selecionar gerenciar Cupons" style="text;html=1;strokeColor=none;fillColor=none;align=center;verticalAlign=middle;whiteSpace=wrap;rounded=0;fontSize=7;" parent="1" vertex="1">
          <mxGeometry x="210" y="1000" width="74.5" height="30" as="geometry" />
        </mxCell>
        <mxCell id="dVPfpixic-bEuHpZjrr3-128" style="edgeStyle=orthogonalEdgeStyle;rounded=0;orthogonalLoop=1;jettySize=auto;html=1;entryX=0;entryY=0.5;entryDx=0;entryDy=0;" parent="1" source="dVPfpixic-bEuHpZjrr3-126" target="dVPfpixic-bEuHpZjrr3-86" edge="1">
          <mxGeometry relative="1" as="geometry" />
        </mxCell>
        <mxCell id="dVPfpixic-bEuHpZjrr3-129" style="edgeStyle=orthogonalEdgeStyle;rounded=0;orthogonalLoop=1;jettySize=auto;html=1;entryX=0.5;entryY=0;entryDx=0;entryDy=0;" parent="1" source="dVPfpixic-bEuHpZjrr3-126" target="dVPfpixic-bEuHpZjrr3-118" edge="1">
          <mxGeometry relative="1" as="geometry" />
        </mxCell>
        <mxCell id="dVPfpixic-bEuHpZjrr3-126" value="" style="rhombus;whiteSpace=wrap;html=1;" parent="1" vertex="1">
          <mxGeometry x="197" y="962.5" width="25" height="25" as="geometry" />
        </mxCell>
        <mxCell id="lAb_s6RTUfXxC0ucx-UY-1" style="edgeStyle=orthogonalEdgeStyle;rounded=0;orthogonalLoop=1;jettySize=auto;html=1;" parent="1" source="lAb_s6RTUfXxC0ucx-UY-2" edge="1">
          <mxGeometry relative="1" as="geometry">
            <mxPoint x="520" y="838" as="targetPoint" />
          </mxGeometry>
        </mxCell>
        <mxCell id="lAb_s6RTUfXxC0ucx-UY-30" style="edgeStyle=orthogonalEdgeStyle;rounded=0;orthogonalLoop=1;jettySize=auto;html=1;" parent="1" source="lAb_s6RTUfXxC0ucx-UY-2" edge="1">
          <mxGeometry relative="1" as="geometry">
            <mxPoint x="465" y="970" as="targetPoint" />
          </mxGeometry>
        </mxCell>
        <mxCell id="lAb_s6RTUfXxC0ucx-UY-2" value="" style="rhombus;whiteSpace=wrap;html=1;" parent="1" vertex="1">
          <mxGeometry x="452.5" y="825.5" width="25" height="25" as="geometry" />
        </mxCell>
        <mxCell id="lAb_s6RTUfXxC0ucx-UY-3" style="edgeStyle=orthogonalEdgeStyle;rounded=0;orthogonalLoop=1;jettySize=auto;html=1;" parent="1" source="lAb_s6RTUfXxC0ucx-UY-4" edge="1">
          <mxGeometry relative="1" as="geometry">
            <mxPoint x="680" y="838" as="targetPoint" />
          </mxGeometry>
        </mxCell>
        <mxCell id="lAb_s6RTUfXxC0ucx-UY-4" value="Criar novo Produto" style="rounded=1;" parent="1" vertex="1">
          <mxGeometry x="530" y="813" width="110" height="50" as="geometry" />
        </mxCell>
        <mxCell id="lAb_s6RTUfXxC0ucx-UY-11" value="" style="ellipse;html=1;shape=endState;fillColor=#000000;strokeColor=#000000;" parent="1" vertex="1">
          <mxGeometry x="687.5" y="823" width="30" height="30" as="geometry" />
        </mxCell>
        <mxCell id="lAb_s6RTUfXxC0ucx-UY-14" value="Editar" style="text;html=1;strokeColor=none;fillColor=none;align=center;verticalAlign=middle;whiteSpace=wrap;rounded=0;fontSize=7;" parent="1" vertex="1">
          <mxGeometry x="462" y="658" width="65" height="30" as="geometry" />
        </mxCell>
        <mxCell id="lAb_s6RTUfXxC0ucx-UY-15" value="Inserir" style="text;html=1;strokeColor=none;fillColor=none;align=center;verticalAlign=middle;whiteSpace=wrap;rounded=0;fontSize=7;" parent="1" vertex="1">
          <mxGeometry x="465" y="813" width="65" height="30" as="geometry" />
        </mxCell>
        <mxCell id="lAb_s6RTUfXxC0ucx-UY-17" style="edgeStyle=orthogonalEdgeStyle;rounded=0;orthogonalLoop=1;jettySize=auto;html=1;entryX=0.5;entryY=0;entryDx=0;entryDy=0;" parent="1" source="lAb_s6RTUfXxC0ucx-UY-16" target="lAb_s6RTUfXxC0ucx-UY-4" edge="1">
          <mxGeometry relative="1" as="geometry" />
        </mxCell>
        <mxCell id="lAb_s6RTUfXxC0ucx-UY-16" value="D" style="ellipse;whiteSpace=wrap;html=1;" parent="1" vertex="1">
          <mxGeometry x="570" y="743" width="30" height="30" as="geometry" />
        </mxCell>
        <mxCell id="lAb_s6RTUfXxC0ucx-UY-18" style="edgeStyle=orthogonalEdgeStyle;rounded=0;orthogonalLoop=1;jettySize=auto;html=1;" parent="1" source="lAb_s6RTUfXxC0ucx-UY-19" edge="1">
          <mxGeometry relative="1" as="geometry">
            <mxPoint x="520" y="983" as="targetPoint" />
          </mxGeometry>
        </mxCell>
        <mxCell id="lAb_s6RTUfXxC0ucx-UY-52" style="edgeStyle=orthogonalEdgeStyle;rounded=0;orthogonalLoop=1;jettySize=auto;html=1;entryX=0.5;entryY=0;entryDx=0;entryDy=0;" parent="1" source="lAb_s6RTUfXxC0ucx-UY-19" target="lAb_s6RTUfXxC0ucx-UY-38" edge="1">
          <mxGeometry relative="1" as="geometry" />
        </mxCell>
        <mxCell id="lAb_s6RTUfXxC0ucx-UY-19" value="" style="rhombus;whiteSpace=wrap;html=1;" parent="1" vertex="1">
          <mxGeometry x="452.5" y="970.5" width="25" height="25" as="geometry" />
        </mxCell>
        <mxCell id="lAb_s6RTUfXxC0ucx-UY-20" style="edgeStyle=orthogonalEdgeStyle;rounded=0;orthogonalLoop=1;jettySize=auto;html=1;" parent="1" source="lAb_s6RTUfXxC0ucx-UY-21" edge="1">
          <mxGeometry relative="1" as="geometry">
            <mxPoint x="680" y="983" as="targetPoint" />
          </mxGeometry>
        </mxCell>
        <mxCell id="lAb_s6RTUfXxC0ucx-UY-21" value="Receber Cod&#xa; Produto" style="rounded=1;" parent="1" vertex="1">
          <mxGeometry x="530" y="958" width="110" height="50" as="geometry" />
        </mxCell>
        <mxCell id="lAb_s6RTUfXxC0ucx-UY-22" style="edgeStyle=orthogonalEdgeStyle;rounded=0;orthogonalLoop=1;jettySize=auto;html=1;" parent="1" source="lAb_s6RTUfXxC0ucx-UY-23" edge="1">
          <mxGeometry relative="1" as="geometry">
            <mxPoint x="760" y="983" as="targetPoint" />
          </mxGeometry>
        </mxCell>
        <mxCell id="lAb_s6RTUfXxC0ucx-UY-31" style="edgeStyle=orthogonalEdgeStyle;rounded=0;orthogonalLoop=1;jettySize=auto;html=1;entryX=0.5;entryY=0;entryDx=0;entryDy=0;" parent="1" source="lAb_s6RTUfXxC0ucx-UY-23" target="lAb_s6RTUfXxC0ucx-UY-33" edge="1">
          <mxGeometry relative="1" as="geometry">
            <mxPoint x="702.5" y="1040" as="targetPoint" />
          </mxGeometry>
        </mxCell>
        <mxCell id="lAb_s6RTUfXxC0ucx-UY-23" value="" style="rhombus;whiteSpace=wrap;html=1;" parent="1" vertex="1">
          <mxGeometry x="690" y="970.5" width="25" height="25" as="geometry" />
        </mxCell>
        <mxCell id="lAb_s6RTUfXxC0ucx-UY-24" style="edgeStyle=orthogonalEdgeStyle;rounded=0;orthogonalLoop=1;jettySize=auto;html=1;" parent="1" source="lAb_s6RTUfXxC0ucx-UY-25" edge="1">
          <mxGeometry relative="1" as="geometry">
            <mxPoint x="920" y="983" as="targetPoint" />
          </mxGeometry>
        </mxCell>
        <mxCell id="lAb_s6RTUfXxC0ucx-UY-25" value="Excluir Produto" style="rounded=1;" parent="1" vertex="1">
          <mxGeometry x="770" y="958" width="110" height="50" as="geometry" />
        </mxCell>
        <mxCell id="lAb_s6RTUfXxC0ucx-UY-26" value="" style="ellipse;html=1;shape=endState;fillColor=#000000;strokeColor=#000000;" parent="1" vertex="1">
          <mxGeometry x="930" y="968" width="30" height="30" as="geometry" />
        </mxCell>
        <mxCell id="lAb_s6RTUfXxC0ucx-UY-27" value="&amp;nbsp;Dados encontrados&amp;nbsp;" style="text;html=1;strokeColor=none;fillColor=none;align=center;verticalAlign=middle;whiteSpace=wrap;rounded=0;fontSize=7;" parent="1" vertex="1">
          <mxGeometry x="705" y="950" width="65" height="30" as="geometry" />
        </mxCell>
        <mxCell id="lAb_s6RTUfXxC0ucx-UY-28" value="Excluir" style="text;html=1;strokeColor=none;fillColor=none;align=center;verticalAlign=middle;whiteSpace=wrap;rounded=0;fontSize=7;" parent="1" vertex="1">
          <mxGeometry x="465" y="957.5" width="65" height="30" as="geometry" />
        </mxCell>
        <mxCell id="lAb_s6RTUfXxC0ucx-UY-32" value="E" style="ellipse;whiteSpace=wrap;html=1;" parent="1" vertex="1">
          <mxGeometry x="687.5" y="1120" width="30" height="30" as="geometry" />
        </mxCell>
        <mxCell id="lAb_s6RTUfXxC0ucx-UY-35" style="edgeStyle=orthogonalEdgeStyle;rounded=0;orthogonalLoop=1;jettySize=auto;html=1;entryX=0.5;entryY=0;entryDx=0;entryDy=0;" parent="1" source="lAb_s6RTUfXxC0ucx-UY-33" target="lAb_s6RTUfXxC0ucx-UY-32" edge="1">
          <mxGeometry relative="1" as="geometry" />
        </mxCell>
        <mxCell id="lAb_s6RTUfXxC0ucx-UY-33" value="Mensagens&#xa;Cod não encontrado" style="rounded=1;" parent="1" vertex="1">
          <mxGeometry x="647.5" y="1040" width="110" height="50" as="geometry" />
        </mxCell>
        <mxCell id="lAb_s6RTUfXxC0ucx-UY-36" value="&amp;nbsp;Dados&lt;br&gt;não encontrado" style="text;html=1;strokeColor=none;fillColor=none;align=center;verticalAlign=middle;whiteSpace=wrap;rounded=0;fontSize=7;" parent="1" vertex="1">
          <mxGeometry x="705" y="1010" width="65" height="30" as="geometry" />
        </mxCell>
        <mxCell id="lAb_s6RTUfXxC0ucx-UY-37" style="edgeStyle=orthogonalEdgeStyle;rounded=0;orthogonalLoop=1;jettySize=auto;html=1;" parent="1" source="lAb_s6RTUfXxC0ucx-UY-38" edge="1">
          <mxGeometry relative="1" as="geometry">
            <mxPoint x="520" y="1195.5" as="targetPoint" />
          </mxGeometry>
        </mxCell>
        <mxCell id="lAb_s6RTUfXxC0ucx-UY-38" value="" style="rhombus;whiteSpace=wrap;html=1;" parent="1" vertex="1">
          <mxGeometry x="452.5" y="1183" width="25" height="25" as="geometry" />
        </mxCell>
        <mxCell id="lAb_s6RTUfXxC0ucx-UY-39" style="edgeStyle=orthogonalEdgeStyle;rounded=0;orthogonalLoop=1;jettySize=auto;html=1;" parent="1" source="lAb_s6RTUfXxC0ucx-UY-40" edge="1">
          <mxGeometry relative="1" as="geometry">
            <mxPoint x="680" y="1195.5" as="targetPoint" />
          </mxGeometry>
        </mxCell>
        <mxCell id="lAb_s6RTUfXxC0ucx-UY-40" value="Receber nome&#xa; Produto" style="rounded=1;" parent="1" vertex="1">
          <mxGeometry x="530" y="1170.5" width="110" height="50" as="geometry" />
        </mxCell>
        <mxCell id="lAb_s6RTUfXxC0ucx-UY-41" style="edgeStyle=orthogonalEdgeStyle;rounded=0;orthogonalLoop=1;jettySize=auto;html=1;" parent="1" source="lAb_s6RTUfXxC0ucx-UY-43" edge="1">
          <mxGeometry relative="1" as="geometry">
            <mxPoint x="760" y="1195.5" as="targetPoint" />
          </mxGeometry>
        </mxCell>
        <mxCell id="lAb_s6RTUfXxC0ucx-UY-42" style="edgeStyle=orthogonalEdgeStyle;rounded=0;orthogonalLoop=1;jettySize=auto;html=1;entryX=0.5;entryY=1;entryDx=0;entryDy=0;" parent="1" source="lAb_s6RTUfXxC0ucx-UY-43" target="lAb_s6RTUfXxC0ucx-UY-40" edge="1">
          <mxGeometry relative="1" as="geometry">
            <mxPoint x="702.5" y="1252.5" as="targetPoint" />
            <Array as="points">
              <mxPoint x="703" y="1241" />
              <mxPoint x="585" y="1241" />
            </Array>
          </mxGeometry>
        </mxCell>
        <mxCell id="lAb_s6RTUfXxC0ucx-UY-43" value="" style="rhombus;whiteSpace=wrap;html=1;" parent="1" vertex="1">
          <mxGeometry x="690" y="1183" width="25" height="25" as="geometry" />
        </mxCell>
        <mxCell id="lAb_s6RTUfXxC0ucx-UY-44" style="edgeStyle=orthogonalEdgeStyle;rounded=0;orthogonalLoop=1;jettySize=auto;html=1;" parent="1" source="lAb_s6RTUfXxC0ucx-UY-45" edge="1">
          <mxGeometry relative="1" as="geometry">
            <mxPoint x="920" y="1195.5" as="targetPoint" />
          </mxGeometry>
        </mxCell>
        <mxCell id="lAb_s6RTUfXxC0ucx-UY-45" value="Apresentar registro" style="rounded=1;" parent="1" vertex="1">
          <mxGeometry x="770" y="1170.5" width="110" height="50" as="geometry" />
        </mxCell>
        <mxCell id="lAb_s6RTUfXxC0ucx-UY-46" value="" style="ellipse;html=1;shape=endState;fillColor=#000000;strokeColor=#000000;" parent="1" vertex="1">
          <mxGeometry x="930" y="1180.5" width="30" height="30" as="geometry" />
        </mxCell>
        <mxCell id="lAb_s6RTUfXxC0ucx-UY-47" value="Localizar" style="text;html=1;strokeColor=none;fillColor=none;align=center;verticalAlign=middle;whiteSpace=wrap;rounded=0;fontSize=7;" parent="1" vertex="1">
          <mxGeometry x="465" y="1170.5" width="65" height="30" as="geometry" />
        </mxCell>
        <mxCell id="lAb_s6RTUfXxC0ucx-UY-51" value="&amp;nbsp;Dados&lt;br&gt;&amp;nbsp;encontrado" style="text;html=1;strokeColor=none;fillColor=none;align=center;verticalAlign=middle;whiteSpace=wrap;rounded=0;fontSize=7;" parent="1" vertex="1">
          <mxGeometry x="705" y="1170.5" width="65" height="30" as="geometry" />
        </mxCell>
        <mxCell id="lAb_s6RTUfXxC0ucx-UY-53" style="edgeStyle=orthogonalEdgeStyle;rounded=0;orthogonalLoop=1;jettySize=auto;html=1;entryX=0.5;entryY=0;entryDx=0;entryDy=0;" parent="1" source="lAb_s6RTUfXxC0ucx-UY-54" target="lAb_s6RTUfXxC0ucx-UY-55" edge="1">
          <mxGeometry relative="1" as="geometry" />
        </mxCell>
        <mxCell id="lAb_s6RTUfXxC0ucx-UY-54" value="B" style="ellipse;whiteSpace=wrap;html=1;" parent="1" vertex="1">
          <mxGeometry x="1060" y="480" width="30" height="30" as="geometry" />
        </mxCell>
        <mxCell id="lAb_s6RTUfXxC0ucx-UY-55" value="Acessar Banco de &#xa;Dados" style="rounded=1;" parent="1" vertex="1">
          <mxGeometry x="1020" y="555" width="110" height="50" as="geometry" />
        </mxCell>
        <mxCell id="lAb_s6RTUfXxC0ucx-UY-56" style="edgeStyle=orthogonalEdgeStyle;rounded=0;orthogonalLoop=1;jettySize=auto;html=1;" parent="1" source="lAb_s6RTUfXxC0ucx-UY-58" edge="1">
          <mxGeometry relative="1" as="geometry">
            <mxPoint x="1130" y="683" as="targetPoint" />
          </mxGeometry>
        </mxCell>
        <mxCell id="lAb_s6RTUfXxC0ucx-UY-57" style="edgeStyle=orthogonalEdgeStyle;rounded=0;orthogonalLoop=1;jettySize=auto;html=1;" parent="1" source="lAb_s6RTUfXxC0ucx-UY-58" edge="1">
          <mxGeometry relative="1" as="geometry">
            <mxPoint x="1075" y="820" as="targetPoint" />
          </mxGeometry>
        </mxCell>
        <mxCell id="lAb_s6RTUfXxC0ucx-UY-58" value="" style="rhombus;whiteSpace=wrap;html=1;" parent="1" vertex="1">
          <mxGeometry x="1062.5" y="670.5" width="25" height="25" as="geometry" />
        </mxCell>
        <mxCell id="lAb_s6RTUfXxC0ucx-UY-59" style="edgeStyle=orthogonalEdgeStyle;rounded=0;orthogonalLoop=1;jettySize=auto;html=1;entryX=0.523;entryY=-0.154;entryDx=0;entryDy=0;entryPerimeter=0;" parent="1" source="lAb_s6RTUfXxC0ucx-UY-55" target="lAb_s6RTUfXxC0ucx-UY-58" edge="1">
          <mxGeometry relative="1" as="geometry" />
        </mxCell>
        <mxCell id="lAb_s6RTUfXxC0ucx-UY-60" style="edgeStyle=orthogonalEdgeStyle;rounded=0;orthogonalLoop=1;jettySize=auto;html=1;" parent="1" source="lAb_s6RTUfXxC0ucx-UY-61" edge="1">
          <mxGeometry relative="1" as="geometry">
            <mxPoint x="1290" y="683" as="targetPoint" />
          </mxGeometry>
        </mxCell>
        <mxCell id="lAb_s6RTUfXxC0ucx-UY-61" value="Receber dados &#xa;do Cliente" style="rounded=1;" parent="1" vertex="1">
          <mxGeometry x="1140" y="658" width="110" height="50" as="geometry" />
        </mxCell>
        <mxCell id="lAb_s6RTUfXxC0ucx-UY-62" style="edgeStyle=orthogonalEdgeStyle;rounded=0;orthogonalLoop=1;jettySize=auto;html=1;" parent="1" source="lAb_s6RTUfXxC0ucx-UY-64" edge="1">
          <mxGeometry relative="1" as="geometry">
            <mxPoint x="1370" y="683" as="targetPoint" />
          </mxGeometry>
        </mxCell>
        <mxCell id="lAb_s6RTUfXxC0ucx-UY-63" style="edgeStyle=orthogonalEdgeStyle;rounded=0;orthogonalLoop=1;jettySize=auto;html=1;" parent="1" source="lAb_s6RTUfXxC0ucx-UY-64" edge="1">
          <mxGeometry relative="1" as="geometry">
            <mxPoint x="1312.5" y="740" as="targetPoint" />
          </mxGeometry>
        </mxCell>
        <mxCell id="lAb_s6RTUfXxC0ucx-UY-64" value="" style="rhombus;whiteSpace=wrap;html=1;" parent="1" vertex="1">
          <mxGeometry x="1300" y="670.5" width="25" height="25" as="geometry" />
        </mxCell>
        <mxCell id="lAb_s6RTUfXxC0ucx-UY-65" style="edgeStyle=orthogonalEdgeStyle;rounded=0;orthogonalLoop=1;jettySize=auto;html=1;" parent="1" source="lAb_s6RTUfXxC0ucx-UY-66" edge="1">
          <mxGeometry relative="1" as="geometry">
            <mxPoint x="1530" y="683" as="targetPoint" />
          </mxGeometry>
        </mxCell>
        <mxCell id="lAb_s6RTUfXxC0ucx-UY-66" value="Corrigir&#xa; informações" style="rounded=1;" parent="1" vertex="1">
          <mxGeometry x="1380" y="658" width="110" height="50" as="geometry" />
        </mxCell>
        <mxCell id="lAb_s6RTUfXxC0ucx-UY-67" value="F" style="ellipse;whiteSpace=wrap;html=1;" parent="1" vertex="1">
          <mxGeometry x="1297.5" y="743" width="30" height="30" as="geometry" />
        </mxCell>
        <mxCell id="lAb_s6RTUfXxC0ucx-UY-68" value="" style="ellipse;html=1;shape=endState;fillColor=#000000;strokeColor=#000000;" parent="1" vertex="1">
          <mxGeometry x="1540" y="668" width="30" height="30" as="geometry" />
        </mxCell>
        <mxCell id="lAb_s6RTUfXxC0ucx-UY-69" value="Dados não encontrados&amp;nbsp;" style="text;html=1;strokeColor=none;fillColor=none;align=center;verticalAlign=middle;whiteSpace=wrap;rounded=0;fontSize=7;" parent="1" vertex="1">
          <mxGeometry x="1325" y="708" width="95" height="30" as="geometry" />
        </mxCell>
        <mxCell id="lAb_s6RTUfXxC0ucx-UY-70" value="&amp;nbsp;Dados encontrados&amp;nbsp;" style="text;html=1;strokeColor=none;fillColor=none;align=center;verticalAlign=middle;whiteSpace=wrap;rounded=0;fontSize=7;" parent="1" vertex="1">
          <mxGeometry x="1315" y="650" width="65" height="30" as="geometry" />
        </mxCell>
        <mxCell id="lAb_s6RTUfXxC0ucx-UY-71" style="edgeStyle=orthogonalEdgeStyle;rounded=0;orthogonalLoop=1;jettySize=auto;html=1;" parent="1" source="lAb_s6RTUfXxC0ucx-UY-73" edge="1">
          <mxGeometry relative="1" as="geometry">
            <mxPoint x="1130" y="838" as="targetPoint" />
          </mxGeometry>
        </mxCell>
        <mxCell id="lAb_s6RTUfXxC0ucx-UY-72" style="edgeStyle=orthogonalEdgeStyle;rounded=0;orthogonalLoop=1;jettySize=auto;html=1;" parent="1" source="lAb_s6RTUfXxC0ucx-UY-73" edge="1">
          <mxGeometry relative="1" as="geometry">
            <mxPoint x="1075" y="970" as="targetPoint" />
          </mxGeometry>
        </mxCell>
        <mxCell id="lAb_s6RTUfXxC0ucx-UY-73" value="" style="rhombus;whiteSpace=wrap;html=1;" parent="1" vertex="1">
          <mxGeometry x="1062.5" y="825.5" width="25" height="25" as="geometry" />
        </mxCell>
        <mxCell id="lAb_s6RTUfXxC0ucx-UY-74" style="edgeStyle=orthogonalEdgeStyle;rounded=0;orthogonalLoop=1;jettySize=auto;html=1;" parent="1" source="lAb_s6RTUfXxC0ucx-UY-75" edge="1">
          <mxGeometry relative="1" as="geometry">
            <mxPoint x="1290" y="838" as="targetPoint" />
          </mxGeometry>
        </mxCell>
        <mxCell id="lAb_s6RTUfXxC0ucx-UY-75" value="Criar novo Cliente" style="rounded=1;" parent="1" vertex="1">
          <mxGeometry x="1140" y="813" width="110" height="50" as="geometry" />
        </mxCell>
        <mxCell id="lAb_s6RTUfXxC0ucx-UY-76" value="" style="ellipse;html=1;shape=endState;fillColor=#000000;strokeColor=#000000;" parent="1" vertex="1">
          <mxGeometry x="1297.5" y="823" width="30" height="30" as="geometry" />
        </mxCell>
        <mxCell id="lAb_s6RTUfXxC0ucx-UY-77" value="Editar" style="text;html=1;strokeColor=none;fillColor=none;align=center;verticalAlign=middle;whiteSpace=wrap;rounded=0;fontSize=7;" parent="1" vertex="1">
          <mxGeometry x="1072" y="658" width="65" height="30" as="geometry" />
        </mxCell>
        <mxCell id="lAb_s6RTUfXxC0ucx-UY-78" value="Inserir" style="text;html=1;strokeColor=none;fillColor=none;align=center;verticalAlign=middle;whiteSpace=wrap;rounded=0;fontSize=7;" parent="1" vertex="1">
          <mxGeometry x="1075" y="813" width="65" height="30" as="geometry" />
        </mxCell>
        <mxCell id="lAb_s6RTUfXxC0ucx-UY-79" style="edgeStyle=orthogonalEdgeStyle;rounded=0;orthogonalLoop=1;jettySize=auto;html=1;entryX=0.5;entryY=0;entryDx=0;entryDy=0;" parent="1" source="lAb_s6RTUfXxC0ucx-UY-80" target="lAb_s6RTUfXxC0ucx-UY-75" edge="1">
          <mxGeometry relative="1" as="geometry" />
        </mxCell>
        <mxCell id="lAb_s6RTUfXxC0ucx-UY-80" value="F" style="ellipse;whiteSpace=wrap;html=1;" parent="1" vertex="1">
          <mxGeometry x="1180" y="743" width="30" height="30" as="geometry" />
        </mxCell>
        <mxCell id="lAb_s6RTUfXxC0ucx-UY-81" style="edgeStyle=orthogonalEdgeStyle;rounded=0;orthogonalLoop=1;jettySize=auto;html=1;" parent="1" source="lAb_s6RTUfXxC0ucx-UY-83" edge="1">
          <mxGeometry relative="1" as="geometry">
            <mxPoint x="1130" y="983" as="targetPoint" />
          </mxGeometry>
        </mxCell>
        <mxCell id="lAb_s6RTUfXxC0ucx-UY-82" style="edgeStyle=orthogonalEdgeStyle;rounded=0;orthogonalLoop=1;jettySize=auto;html=1;entryX=0.5;entryY=0;entryDx=0;entryDy=0;" parent="1" source="lAb_s6RTUfXxC0ucx-UY-83" target="lAb_s6RTUfXxC0ucx-UY-99" edge="1">
          <mxGeometry relative="1" as="geometry" />
        </mxCell>
        <mxCell id="lAb_s6RTUfXxC0ucx-UY-83" value="" style="rhombus;whiteSpace=wrap;html=1;" parent="1" vertex="1">
          <mxGeometry x="1062.5" y="970.5" width="25" height="25" as="geometry" />
        </mxCell>
        <mxCell id="lAb_s6RTUfXxC0ucx-UY-84" style="edgeStyle=orthogonalEdgeStyle;rounded=0;orthogonalLoop=1;jettySize=auto;html=1;" parent="1" source="lAb_s6RTUfXxC0ucx-UY-85" edge="1">
          <mxGeometry relative="1" as="geometry">
            <mxPoint x="1290" y="983" as="targetPoint" />
          </mxGeometry>
        </mxCell>
        <mxCell id="lAb_s6RTUfXxC0ucx-UY-85" value="Receber Cod&#xa; Cliente" style="rounded=1;" parent="1" vertex="1">
          <mxGeometry x="1140" y="958" width="110" height="50" as="geometry" />
        </mxCell>
        <mxCell id="lAb_s6RTUfXxC0ucx-UY-86" style="edgeStyle=orthogonalEdgeStyle;rounded=0;orthogonalLoop=1;jettySize=auto;html=1;" parent="1" source="lAb_s6RTUfXxC0ucx-UY-88" edge="1">
          <mxGeometry relative="1" as="geometry">
            <mxPoint x="1370" y="983" as="targetPoint" />
          </mxGeometry>
        </mxCell>
        <mxCell id="lAb_s6RTUfXxC0ucx-UY-87" style="edgeStyle=orthogonalEdgeStyle;rounded=0;orthogonalLoop=1;jettySize=auto;html=1;entryX=0.5;entryY=0;entryDx=0;entryDy=0;" parent="1" source="lAb_s6RTUfXxC0ucx-UY-88" target="lAb_s6RTUfXxC0ucx-UY-96" edge="1">
          <mxGeometry relative="1" as="geometry">
            <mxPoint x="1312.5" y="1040" as="targetPoint" />
          </mxGeometry>
        </mxCell>
        <mxCell id="lAb_s6RTUfXxC0ucx-UY-88" value="" style="rhombus;whiteSpace=wrap;html=1;" parent="1" vertex="1">
          <mxGeometry x="1300" y="970.5" width="25" height="25" as="geometry" />
        </mxCell>
        <mxCell id="lAb_s6RTUfXxC0ucx-UY-89" style="edgeStyle=orthogonalEdgeStyle;rounded=0;orthogonalLoop=1;jettySize=auto;html=1;" parent="1" source="lAb_s6RTUfXxC0ucx-UY-90" edge="1">
          <mxGeometry relative="1" as="geometry">
            <mxPoint x="1530" y="983" as="targetPoint" />
          </mxGeometry>
        </mxCell>
        <mxCell id="lAb_s6RTUfXxC0ucx-UY-90" value="Excluir Cliente" style="rounded=1;" parent="1" vertex="1">
          <mxGeometry x="1380" y="958" width="110" height="50" as="geometry" />
        </mxCell>
        <mxCell id="lAb_s6RTUfXxC0ucx-UY-91" value="" style="ellipse;html=1;shape=endState;fillColor=#000000;strokeColor=#000000;" parent="1" vertex="1">
          <mxGeometry x="1540" y="968" width="30" height="30" as="geometry" />
        </mxCell>
        <mxCell id="lAb_s6RTUfXxC0ucx-UY-92" value="&amp;nbsp;Dados encontrados&amp;nbsp;" style="text;html=1;strokeColor=none;fillColor=none;align=center;verticalAlign=middle;whiteSpace=wrap;rounded=0;fontSize=7;" parent="1" vertex="1">
          <mxGeometry x="1315" y="950" width="65" height="30" as="geometry" />
        </mxCell>
        <mxCell id="lAb_s6RTUfXxC0ucx-UY-93" value="Excluir" style="text;html=1;strokeColor=none;fillColor=none;align=center;verticalAlign=middle;whiteSpace=wrap;rounded=0;fontSize=7;" parent="1" vertex="1">
          <mxGeometry x="1075" y="957.5" width="65" height="30" as="geometry" />
        </mxCell>
        <mxCell id="lAb_s6RTUfXxC0ucx-UY-94" value="G" style="ellipse;whiteSpace=wrap;html=1;" parent="1" vertex="1">
          <mxGeometry x="1297.5" y="1120" width="30" height="30" as="geometry" />
        </mxCell>
        <mxCell id="lAb_s6RTUfXxC0ucx-UY-95" style="edgeStyle=orthogonalEdgeStyle;rounded=0;orthogonalLoop=1;jettySize=auto;html=1;entryX=0.5;entryY=0;entryDx=0;entryDy=0;" parent="1" source="lAb_s6RTUfXxC0ucx-UY-96" target="lAb_s6RTUfXxC0ucx-UY-94" edge="1">
          <mxGeometry relative="1" as="geometry" />
        </mxCell>
        <mxCell id="lAb_s6RTUfXxC0ucx-UY-96" value="Mensagens&#xa;Cod não encontrado" style="rounded=1;" parent="1" vertex="1">
          <mxGeometry x="1257.5" y="1040" width="110" height="50" as="geometry" />
        </mxCell>
        <mxCell id="lAb_s6RTUfXxC0ucx-UY-97" value="&amp;nbsp;Dados&lt;br&gt;não encontrado" style="text;html=1;strokeColor=none;fillColor=none;align=center;verticalAlign=middle;whiteSpace=wrap;rounded=0;fontSize=7;" parent="1" vertex="1">
          <mxGeometry x="1315" y="1010" width="65" height="30" as="geometry" />
        </mxCell>
        <mxCell id="lAb_s6RTUfXxC0ucx-UY-98" style="edgeStyle=orthogonalEdgeStyle;rounded=0;orthogonalLoop=1;jettySize=auto;html=1;" parent="1" source="lAb_s6RTUfXxC0ucx-UY-99" edge="1">
          <mxGeometry relative="1" as="geometry">
            <mxPoint x="1130" y="1195.5" as="targetPoint" />
          </mxGeometry>
        </mxCell>
        <mxCell id="lAb_s6RTUfXxC0ucx-UY-99" value="" style="rhombus;whiteSpace=wrap;html=1;" parent="1" vertex="1">
          <mxGeometry x="1062.5" y="1183" width="25" height="25" as="geometry" />
        </mxCell>
        <mxCell id="lAb_s6RTUfXxC0ucx-UY-100" style="edgeStyle=orthogonalEdgeStyle;rounded=0;orthogonalLoop=1;jettySize=auto;html=1;" parent="1" source="lAb_s6RTUfXxC0ucx-UY-101" edge="1">
          <mxGeometry relative="1" as="geometry">
            <mxPoint x="1290" y="1195.5" as="targetPoint" />
          </mxGeometry>
        </mxCell>
        <mxCell id="lAb_s6RTUfXxC0ucx-UY-101" value="Receber nome&#xa; Cliente" style="rounded=1;" parent="1" vertex="1">
          <mxGeometry x="1140" y="1170.5" width="110" height="50" as="geometry" />
        </mxCell>
        <mxCell id="lAb_s6RTUfXxC0ucx-UY-102" style="edgeStyle=orthogonalEdgeStyle;rounded=0;orthogonalLoop=1;jettySize=auto;html=1;" parent="1" source="lAb_s6RTUfXxC0ucx-UY-104" edge="1">
          <mxGeometry relative="1" as="geometry">
            <mxPoint x="1370" y="1195.5" as="targetPoint" />
          </mxGeometry>
        </mxCell>
        <mxCell id="lAb_s6RTUfXxC0ucx-UY-103" style="edgeStyle=orthogonalEdgeStyle;rounded=0;orthogonalLoop=1;jettySize=auto;html=1;entryX=0.5;entryY=1;entryDx=0;entryDy=0;" parent="1" source="lAb_s6RTUfXxC0ucx-UY-104" target="lAb_s6RTUfXxC0ucx-UY-101" edge="1">
          <mxGeometry relative="1" as="geometry">
            <mxPoint x="1312.5" y="1252.5" as="targetPoint" />
            <Array as="points">
              <mxPoint x="1313" y="1241" />
              <mxPoint x="1195" y="1241" />
            </Array>
          </mxGeometry>
        </mxCell>
        <mxCell id="lAb_s6RTUfXxC0ucx-UY-104" value="" style="rhombus;whiteSpace=wrap;html=1;" parent="1" vertex="1">
          <mxGeometry x="1300" y="1183" width="25" height="25" as="geometry" />
        </mxCell>
        <mxCell id="lAb_s6RTUfXxC0ucx-UY-105" style="edgeStyle=orthogonalEdgeStyle;rounded=0;orthogonalLoop=1;jettySize=auto;html=1;" parent="1" source="lAb_s6RTUfXxC0ucx-UY-106" edge="1">
          <mxGeometry relative="1" as="geometry">
            <mxPoint x="1530" y="1195.5" as="targetPoint" />
          </mxGeometry>
        </mxCell>
        <mxCell id="lAb_s6RTUfXxC0ucx-UY-106" value="Apresentar registro" style="rounded=1;" parent="1" vertex="1">
          <mxGeometry x="1380" y="1170.5" width="110" height="50" as="geometry" />
        </mxCell>
        <mxCell id="lAb_s6RTUfXxC0ucx-UY-107" value="" style="ellipse;html=1;shape=endState;fillColor=#000000;strokeColor=#000000;" parent="1" vertex="1">
          <mxGeometry x="1540" y="1180.5" width="30" height="30" as="geometry" />
        </mxCell>
        <mxCell id="lAb_s6RTUfXxC0ucx-UY-108" value="Localizar" style="text;html=1;strokeColor=none;fillColor=none;align=center;verticalAlign=middle;whiteSpace=wrap;rounded=0;fontSize=7;" parent="1" vertex="1">
          <mxGeometry x="1075" y="1170.5" width="65" height="30" as="geometry" />
        </mxCell>
        <mxCell id="lAb_s6RTUfXxC0ucx-UY-109" value="&amp;nbsp;Dados&lt;br&gt;&amp;nbsp;encontrado" style="text;html=1;strokeColor=none;fillColor=none;align=center;verticalAlign=middle;whiteSpace=wrap;rounded=0;fontSize=7;" parent="1" vertex="1">
          <mxGeometry x="1315" y="1170.5" width="65" height="30" as="geometry" />
        </mxCell>
        <mxCell id="lAb_s6RTUfXxC0ucx-UY-110" style="edgeStyle=orthogonalEdgeStyle;rounded=0;orthogonalLoop=1;jettySize=auto;html=1;entryX=0.5;entryY=0;entryDx=0;entryDy=0;" parent="1" source="lAb_s6RTUfXxC0ucx-UY-111" target="lAb_s6RTUfXxC0ucx-UY-112" edge="1">
          <mxGeometry relative="1" as="geometry" />
        </mxCell>
        <mxCell id="lAb_s6RTUfXxC0ucx-UY-111" value="C" style="ellipse;whiteSpace=wrap;html=1;" parent="1" vertex="1">
          <mxGeometry x="1670" y="480" width="30" height="30" as="geometry" />
        </mxCell>
        <mxCell id="lAb_s6RTUfXxC0ucx-UY-112" value="Acessar Banco de &#xa;Dados" style="rounded=1;" parent="1" vertex="1">
          <mxGeometry x="1630" y="555" width="110" height="50" as="geometry" />
        </mxCell>
        <mxCell id="lAb_s6RTUfXxC0ucx-UY-113" style="edgeStyle=orthogonalEdgeStyle;rounded=0;orthogonalLoop=1;jettySize=auto;html=1;" parent="1" source="lAb_s6RTUfXxC0ucx-UY-115" edge="1">
          <mxGeometry relative="1" as="geometry">
            <mxPoint x="1740" y="683" as="targetPoint" />
          </mxGeometry>
        </mxCell>
        <mxCell id="lAb_s6RTUfXxC0ucx-UY-114" style="edgeStyle=orthogonalEdgeStyle;rounded=0;orthogonalLoop=1;jettySize=auto;html=1;" parent="1" source="lAb_s6RTUfXxC0ucx-UY-115" edge="1">
          <mxGeometry relative="1" as="geometry">
            <mxPoint x="1685" y="820" as="targetPoint" />
          </mxGeometry>
        </mxCell>
        <mxCell id="lAb_s6RTUfXxC0ucx-UY-115" value="" style="rhombus;whiteSpace=wrap;html=1;" parent="1" vertex="1">
          <mxGeometry x="1672.5" y="670.5" width="25" height="25" as="geometry" />
        </mxCell>
        <mxCell id="lAb_s6RTUfXxC0ucx-UY-116" style="edgeStyle=orthogonalEdgeStyle;rounded=0;orthogonalLoop=1;jettySize=auto;html=1;entryX=0.523;entryY=-0.154;entryDx=0;entryDy=0;entryPerimeter=0;" parent="1" source="lAb_s6RTUfXxC0ucx-UY-112" target="lAb_s6RTUfXxC0ucx-UY-115" edge="1">
          <mxGeometry relative="1" as="geometry" />
        </mxCell>
        <mxCell id="lAb_s6RTUfXxC0ucx-UY-117" style="edgeStyle=orthogonalEdgeStyle;rounded=0;orthogonalLoop=1;jettySize=auto;html=1;" parent="1" source="lAb_s6RTUfXxC0ucx-UY-118" edge="1">
          <mxGeometry relative="1" as="geometry">
            <mxPoint x="1900" y="683" as="targetPoint" />
          </mxGeometry>
        </mxCell>
        <mxCell id="lAb_s6RTUfXxC0ucx-UY-118" value="Receber dados &#xa;do Cupom" style="rounded=1;" parent="1" vertex="1">
          <mxGeometry x="1750" y="660" width="110" height="48" as="geometry" />
        </mxCell>
        <mxCell id="lAb_s6RTUfXxC0ucx-UY-119" style="edgeStyle=orthogonalEdgeStyle;rounded=0;orthogonalLoop=1;jettySize=auto;html=1;" parent="1" source="lAb_s6RTUfXxC0ucx-UY-121" edge="1">
          <mxGeometry relative="1" as="geometry">
            <mxPoint x="1980" y="683" as="targetPoint" />
          </mxGeometry>
        </mxCell>
        <mxCell id="lAb_s6RTUfXxC0ucx-UY-120" style="edgeStyle=orthogonalEdgeStyle;rounded=0;orthogonalLoop=1;jettySize=auto;html=1;" parent="1" source="lAb_s6RTUfXxC0ucx-UY-121" edge="1">
          <mxGeometry relative="1" as="geometry">
            <mxPoint x="1922.5" y="740" as="targetPoint" />
          </mxGeometry>
        </mxCell>
        <mxCell id="lAb_s6RTUfXxC0ucx-UY-121" value="" style="rhombus;whiteSpace=wrap;html=1;" parent="1" vertex="1">
          <mxGeometry x="1910" y="670.5" width="25" height="25" as="geometry" />
        </mxCell>
        <mxCell id="lAb_s6RTUfXxC0ucx-UY-122" style="edgeStyle=orthogonalEdgeStyle;rounded=0;orthogonalLoop=1;jettySize=auto;html=1;" parent="1" source="lAb_s6RTUfXxC0ucx-UY-123" edge="1">
          <mxGeometry relative="1" as="geometry">
            <mxPoint x="2140" y="683" as="targetPoint" />
          </mxGeometry>
        </mxCell>
        <mxCell id="lAb_s6RTUfXxC0ucx-UY-123" value="Corrigir&#xa; informações" style="rounded=1;" parent="1" vertex="1">
          <mxGeometry x="1990" y="658" width="110" height="50" as="geometry" />
        </mxCell>
        <mxCell id="lAb_s6RTUfXxC0ucx-UY-124" value="H" style="ellipse;whiteSpace=wrap;html=1;" parent="1" vertex="1">
          <mxGeometry x="1907.5" y="743" width="30" height="30" as="geometry" />
        </mxCell>
        <mxCell id="lAb_s6RTUfXxC0ucx-UY-125" value="" style="ellipse;html=1;shape=endState;fillColor=#000000;strokeColor=#000000;" parent="1" vertex="1">
          <mxGeometry x="2150" y="668" width="30" height="30" as="geometry" />
        </mxCell>
        <mxCell id="lAb_s6RTUfXxC0ucx-UY-126" value="Dados não encontrados&amp;nbsp;" style="text;html=1;strokeColor=none;fillColor=none;align=center;verticalAlign=middle;whiteSpace=wrap;rounded=0;fontSize=7;" parent="1" vertex="1">
          <mxGeometry x="1935" y="708" width="95" height="30" as="geometry" />
        </mxCell>
        <mxCell id="lAb_s6RTUfXxC0ucx-UY-127" value="&amp;nbsp;Dados encontrados&amp;nbsp;" style="text;html=1;strokeColor=none;fillColor=none;align=center;verticalAlign=middle;whiteSpace=wrap;rounded=0;fontSize=7;" parent="1" vertex="1">
          <mxGeometry x="1925" y="650" width="65" height="30" as="geometry" />
        </mxCell>
        <mxCell id="lAb_s6RTUfXxC0ucx-UY-128" style="edgeStyle=orthogonalEdgeStyle;rounded=0;orthogonalLoop=1;jettySize=auto;html=1;" parent="1" source="lAb_s6RTUfXxC0ucx-UY-130" edge="1">
          <mxGeometry relative="1" as="geometry">
            <mxPoint x="1740" y="838" as="targetPoint" />
          </mxGeometry>
        </mxCell>
        <mxCell id="lAb_s6RTUfXxC0ucx-UY-129" style="edgeStyle=orthogonalEdgeStyle;rounded=0;orthogonalLoop=1;jettySize=auto;html=1;" parent="1" source="lAb_s6RTUfXxC0ucx-UY-130" edge="1">
          <mxGeometry relative="1" as="geometry">
            <mxPoint x="1685" y="970" as="targetPoint" />
          </mxGeometry>
        </mxCell>
        <mxCell id="lAb_s6RTUfXxC0ucx-UY-130" value="" style="rhombus;whiteSpace=wrap;html=1;" parent="1" vertex="1">
          <mxGeometry x="1672.5" y="825.5" width="25" height="25" as="geometry" />
        </mxCell>
        <mxCell id="lAb_s6RTUfXxC0ucx-UY-131" style="edgeStyle=orthogonalEdgeStyle;rounded=0;orthogonalLoop=1;jettySize=auto;html=1;" parent="1" source="lAb_s6RTUfXxC0ucx-UY-132" edge="1">
          <mxGeometry relative="1" as="geometry">
            <mxPoint x="1900" y="838" as="targetPoint" />
          </mxGeometry>
        </mxCell>
        <mxCell id="lAb_s6RTUfXxC0ucx-UY-132" value="Criar novo Cupom" style="rounded=1;" parent="1" vertex="1">
          <mxGeometry x="1750" y="813" width="110" height="50" as="geometry" />
        </mxCell>
        <mxCell id="lAb_s6RTUfXxC0ucx-UY-133" value="" style="ellipse;html=1;shape=endState;fillColor=#000000;strokeColor=#000000;" parent="1" vertex="1">
          <mxGeometry x="1907.5" y="823" width="30" height="30" as="geometry" />
        </mxCell>
        <mxCell id="lAb_s6RTUfXxC0ucx-UY-134" value="Editar" style="text;html=1;strokeColor=none;fillColor=none;align=center;verticalAlign=middle;whiteSpace=wrap;rounded=0;fontSize=7;" parent="1" vertex="1">
          <mxGeometry x="1682" y="658" width="65" height="30" as="geometry" />
        </mxCell>
        <mxCell id="lAb_s6RTUfXxC0ucx-UY-135" value="Inserir" style="text;html=1;strokeColor=none;fillColor=none;align=center;verticalAlign=middle;whiteSpace=wrap;rounded=0;fontSize=7;" parent="1" vertex="1">
          <mxGeometry x="1685" y="813" width="65" height="30" as="geometry" />
        </mxCell>
        <mxCell id="lAb_s6RTUfXxC0ucx-UY-136" style="edgeStyle=orthogonalEdgeStyle;rounded=0;orthogonalLoop=1;jettySize=auto;html=1;entryX=0.5;entryY=0;entryDx=0;entryDy=0;" parent="1" source="lAb_s6RTUfXxC0ucx-UY-137" target="lAb_s6RTUfXxC0ucx-UY-132" edge="1">
          <mxGeometry relative="1" as="geometry" />
        </mxCell>
        <mxCell id="lAb_s6RTUfXxC0ucx-UY-137" value="H" style="ellipse;whiteSpace=wrap;html=1;" parent="1" vertex="1">
          <mxGeometry x="1790" y="743" width="30" height="30" as="geometry" />
        </mxCell>
        <mxCell id="lAb_s6RTUfXxC0ucx-UY-138" style="edgeStyle=orthogonalEdgeStyle;rounded=0;orthogonalLoop=1;jettySize=auto;html=1;" parent="1" source="lAb_s6RTUfXxC0ucx-UY-140" edge="1">
          <mxGeometry relative="1" as="geometry">
            <mxPoint x="1740" y="983" as="targetPoint" />
          </mxGeometry>
        </mxCell>
        <mxCell id="lAb_s6RTUfXxC0ucx-UY-139" style="edgeStyle=orthogonalEdgeStyle;rounded=0;orthogonalLoop=1;jettySize=auto;html=1;entryX=0.5;entryY=0;entryDx=0;entryDy=0;" parent="1" source="lAb_s6RTUfXxC0ucx-UY-140" target="lAb_s6RTUfXxC0ucx-UY-156" edge="1">
          <mxGeometry relative="1" as="geometry" />
        </mxCell>
        <mxCell id="lAb_s6RTUfXxC0ucx-UY-140" value="" style="rhombus;whiteSpace=wrap;html=1;" parent="1" vertex="1">
          <mxGeometry x="1672.5" y="970.5" width="25" height="25" as="geometry" />
        </mxCell>
        <mxCell id="lAb_s6RTUfXxC0ucx-UY-141" style="edgeStyle=orthogonalEdgeStyle;rounded=0;orthogonalLoop=1;jettySize=auto;html=1;" parent="1" source="lAb_s6RTUfXxC0ucx-UY-142" edge="1">
          <mxGeometry relative="1" as="geometry">
            <mxPoint x="1900" y="983" as="targetPoint" />
          </mxGeometry>
        </mxCell>
        <mxCell id="lAb_s6RTUfXxC0ucx-UY-142" value="Receber Cod&#xa; Cupom" style="rounded=1;" parent="1" vertex="1">
          <mxGeometry x="1750" y="958" width="110" height="50" as="geometry" />
        </mxCell>
        <mxCell id="lAb_s6RTUfXxC0ucx-UY-143" style="edgeStyle=orthogonalEdgeStyle;rounded=0;orthogonalLoop=1;jettySize=auto;html=1;" parent="1" source="lAb_s6RTUfXxC0ucx-UY-145" edge="1">
          <mxGeometry relative="1" as="geometry">
            <mxPoint x="1980" y="983" as="targetPoint" />
          </mxGeometry>
        </mxCell>
        <mxCell id="lAb_s6RTUfXxC0ucx-UY-144" style="edgeStyle=orthogonalEdgeStyle;rounded=0;orthogonalLoop=1;jettySize=auto;html=1;entryX=0.5;entryY=0;entryDx=0;entryDy=0;" parent="1" source="lAb_s6RTUfXxC0ucx-UY-145" target="lAb_s6RTUfXxC0ucx-UY-153" edge="1">
          <mxGeometry relative="1" as="geometry">
            <mxPoint x="1922.5" y="1040" as="targetPoint" />
          </mxGeometry>
        </mxCell>
        <mxCell id="lAb_s6RTUfXxC0ucx-UY-145" value="" style="rhombus;whiteSpace=wrap;html=1;" parent="1" vertex="1">
          <mxGeometry x="1910" y="970.5" width="25" height="25" as="geometry" />
        </mxCell>
        <mxCell id="lAb_s6RTUfXxC0ucx-UY-146" style="edgeStyle=orthogonalEdgeStyle;rounded=0;orthogonalLoop=1;jettySize=auto;html=1;" parent="1" source="lAb_s6RTUfXxC0ucx-UY-147" edge="1">
          <mxGeometry relative="1" as="geometry">
            <mxPoint x="2140" y="983" as="targetPoint" />
          </mxGeometry>
        </mxCell>
        <mxCell id="lAb_s6RTUfXxC0ucx-UY-147" value="Excluir Cupom" style="rounded=1;" parent="1" vertex="1">
          <mxGeometry x="1990" y="958" width="110" height="50" as="geometry" />
        </mxCell>
        <mxCell id="lAb_s6RTUfXxC0ucx-UY-148" value="" style="ellipse;html=1;shape=endState;fillColor=#000000;strokeColor=#000000;" parent="1" vertex="1">
          <mxGeometry x="2150" y="968" width="30" height="30" as="geometry" />
        </mxCell>
        <mxCell id="lAb_s6RTUfXxC0ucx-UY-149" value="&amp;nbsp;Dados encontrados&amp;nbsp;" style="text;html=1;strokeColor=none;fillColor=none;align=center;verticalAlign=middle;whiteSpace=wrap;rounded=0;fontSize=7;" parent="1" vertex="1">
          <mxGeometry x="1925" y="950" width="65" height="30" as="geometry" />
        </mxCell>
        <mxCell id="lAb_s6RTUfXxC0ucx-UY-150" value="Excluir" style="text;html=1;strokeColor=none;fillColor=none;align=center;verticalAlign=middle;whiteSpace=wrap;rounded=0;fontSize=7;" parent="1" vertex="1">
          <mxGeometry x="1685" y="957.5" width="65" height="30" as="geometry" />
        </mxCell>
        <mxCell id="lAb_s6RTUfXxC0ucx-UY-151" value="&lt;i&gt;I&lt;/i&gt;" style="ellipse;whiteSpace=wrap;html=1;" parent="1" vertex="1">
          <mxGeometry x="1907.5" y="1120" width="30" height="30" as="geometry" />
        </mxCell>
        <mxCell id="lAb_s6RTUfXxC0ucx-UY-152" style="edgeStyle=orthogonalEdgeStyle;rounded=0;orthogonalLoop=1;jettySize=auto;html=1;entryX=0.5;entryY=0;entryDx=0;entryDy=0;" parent="1" source="lAb_s6RTUfXxC0ucx-UY-153" target="lAb_s6RTUfXxC0ucx-UY-151" edge="1">
          <mxGeometry relative="1" as="geometry" />
        </mxCell>
        <mxCell id="lAb_s6RTUfXxC0ucx-UY-153" value="Mensagens&#xa;Cod não encontrado" style="rounded=1;" parent="1" vertex="1">
          <mxGeometry x="1867.5" y="1040" width="110" height="50" as="geometry" />
        </mxCell>
        <mxCell id="lAb_s6RTUfXxC0ucx-UY-154" value="&amp;nbsp;Dados&lt;br&gt;não encontrado" style="text;html=1;strokeColor=none;fillColor=none;align=center;verticalAlign=middle;whiteSpace=wrap;rounded=0;fontSize=7;" parent="1" vertex="1">
          <mxGeometry x="1925" y="1010" width="65" height="30" as="geometry" />
        </mxCell>
        <mxCell id="lAb_s6RTUfXxC0ucx-UY-155" style="edgeStyle=orthogonalEdgeStyle;rounded=0;orthogonalLoop=1;jettySize=auto;html=1;" parent="1" source="lAb_s6RTUfXxC0ucx-UY-156" edge="1">
          <mxGeometry relative="1" as="geometry">
            <mxPoint x="1740" y="1195.5" as="targetPoint" />
          </mxGeometry>
        </mxCell>
        <mxCell id="lAb_s6RTUfXxC0ucx-UY-156" value="" style="rhombus;whiteSpace=wrap;html=1;" parent="1" vertex="1">
          <mxGeometry x="1672.5" y="1183" width="25" height="25" as="geometry" />
        </mxCell>
        <mxCell id="lAb_s6RTUfXxC0ucx-UY-157" style="edgeStyle=orthogonalEdgeStyle;rounded=0;orthogonalLoop=1;jettySize=auto;html=1;" parent="1" source="lAb_s6RTUfXxC0ucx-UY-158" edge="1">
          <mxGeometry relative="1" as="geometry">
            <mxPoint x="1900" y="1195.5" as="targetPoint" />
          </mxGeometry>
        </mxCell>
        <mxCell id="lAb_s6RTUfXxC0ucx-UY-158" value="Receber nome&#xa; Cupom" style="rounded=1;" parent="1" vertex="1">
          <mxGeometry x="1750" y="1170.5" width="110" height="50" as="geometry" />
        </mxCell>
        <mxCell id="lAb_s6RTUfXxC0ucx-UY-159" style="edgeStyle=orthogonalEdgeStyle;rounded=0;orthogonalLoop=1;jettySize=auto;html=1;" parent="1" source="lAb_s6RTUfXxC0ucx-UY-161" edge="1">
          <mxGeometry relative="1" as="geometry">
            <mxPoint x="1980" y="1195.5" as="targetPoint" />
          </mxGeometry>
        </mxCell>
        <mxCell id="lAb_s6RTUfXxC0ucx-UY-160" style="edgeStyle=orthogonalEdgeStyle;rounded=0;orthogonalLoop=1;jettySize=auto;html=1;entryX=0.5;entryY=1;entryDx=0;entryDy=0;" parent="1" source="lAb_s6RTUfXxC0ucx-UY-161" target="lAb_s6RTUfXxC0ucx-UY-158" edge="1">
          <mxGeometry relative="1" as="geometry">
            <mxPoint x="1922.5" y="1252.5" as="targetPoint" />
            <Array as="points">
              <mxPoint x="1923" y="1241" />
              <mxPoint x="1805" y="1241" />
            </Array>
          </mxGeometry>
        </mxCell>
        <mxCell id="lAb_s6RTUfXxC0ucx-UY-161" value="" style="rhombus;whiteSpace=wrap;html=1;" parent="1" vertex="1">
          <mxGeometry x="1910" y="1183" width="25" height="25" as="geometry" />
        </mxCell>
        <mxCell id="lAb_s6RTUfXxC0ucx-UY-162" style="edgeStyle=orthogonalEdgeStyle;rounded=0;orthogonalLoop=1;jettySize=auto;html=1;" parent="1" source="lAb_s6RTUfXxC0ucx-UY-163" edge="1">
          <mxGeometry relative="1" as="geometry">
            <mxPoint x="2140" y="1195.5" as="targetPoint" />
          </mxGeometry>
        </mxCell>
        <mxCell id="lAb_s6RTUfXxC0ucx-UY-163" value="Apresentar registro" style="rounded=1;" parent="1" vertex="1">
          <mxGeometry x="1990" y="1170.5" width="110" height="50" as="geometry" />
        </mxCell>
        <mxCell id="lAb_s6RTUfXxC0ucx-UY-164" value="" style="ellipse;html=1;shape=endState;fillColor=#000000;strokeColor=#000000;" parent="1" vertex="1">
          <mxGeometry x="2150" y="1180.5" width="30" height="30" as="geometry" />
        </mxCell>
        <mxCell id="lAb_s6RTUfXxC0ucx-UY-165" value="Localizar" style="text;html=1;strokeColor=none;fillColor=none;align=center;verticalAlign=middle;whiteSpace=wrap;rounded=0;fontSize=7;" parent="1" vertex="1">
          <mxGeometry x="1685" y="1170.5" width="65" height="30" as="geometry" />
        </mxCell>
        <mxCell id="lAb_s6RTUfXxC0ucx-UY-166" value="&amp;nbsp;Dados&lt;br&gt;&amp;nbsp;encontrado" style="text;html=1;strokeColor=none;fillColor=none;align=center;verticalAlign=middle;whiteSpace=wrap;rounded=0;fontSize=7;" parent="1" vertex="1">
          <mxGeometry x="1925" y="1170.5" width="65" height="30" as="geometry" />
        </mxCell>
      </root>
    </mxGraphModel>
  </diagram>
</mxfile>
